<svg width="485" height="262" viewBox="0 0 485 262" fill="none" xmlns="http://www.w3.org/2000/svg">
<g filter="url(#filter0_ddif_4427_32622)">
<path fill-rule="evenodd" clip-rule="evenodd" d="M67.0228 82.3659L37.9385 59.2436L48.0597 37.8418H88.0789L67.0228 82.3659ZM245.148 223.977L157.916 154.627V102.354C157.916 88.7007 160.781 76.754 166.51 66.5139C168.806 62.4111 171.465 58.6713 174.488 55.2945L205.527 74.0275C202.496 76.485 199.966 79.4418 197.935 82.898C195.028 87.8474 193.574 93.3941 193.574 99.5381V160.21C193.574 166.354 195.028 171.901 197.935 176.85C200.843 181.8 204.776 185.725 209.736 188.627C214.696 191.528 220.254 192.979 226.411 192.979C232.567 192.979 238.126 191.528 243.085 188.627C248.045 185.725 251.979 181.8 254.886 176.85C257.793 171.901 259.247 166.354 259.247 160.21V106.448L294.905 127.969V157.65C294.905 171.304 292.041 183.251 286.311 193.491C280.582 203.731 272.587 211.709 262.325 217.427C257.051 220.365 251.325 222.549 245.148 223.977ZM334.956 152.14L330.776 160.978V193.491H403.471L334.956 152.14ZM411.071 198.077L446.472 219.443V222.163H411.071V198.077Z" fill="#0B0F19"/>
</g>
<defs>
<filter id="filter0_ddif_4427_32622" x="0.213562" y="0.116882" width="483.984" height="261.585" filterUnits="userSpaceOnUse" color-interpolation-filters="sRGB">
<feFlood flood-opacity="0" result="BackgroundImageFix"/>
<feColorMatrix in="SourceAlpha" type="matrix" values="0 0 0 0 0 0 0 0 0 0 0 0 0 0 0 0 0 0 127 0" result="hardAlpha"/>
<feOffset/>
<feGaussianBlur stdDeviation="18.8625"/>
<feColorMatrix type="matrix" values="0 0 0 0 0.870588 0 0 0 0 0.87451 0 0 0 0 1 0 0 0 0.3 0"/>
<feBlend mode="normal" in2="BackgroundImageFix" result="effect1_dropShadow_4427_32622"/>
<feColorMatrix in="SourceAlpha" type="matrix" values="0 0 0 0 0 0 0 0 0 0 0 0 0 0 0 0 0 0 127 0" result="hardAlpha"/>
<feOffset/>
<feGaussianBlur stdDeviation="8.48459"/>
<feColorMatrix type="matrix" values="0 0 0 0 0.870588 0 0 0 0 0.87451 0 0 0 0 1 0 0 0 0.4 0"/>
<feBlend mode="normal" in2="effect1_dropShadow_4427_32622" result="effect2_dropShadow_4427_32622"/>
<feBlend mode="normal" in="SourceGraphic" in2="effect2_dropShadow_4427_32622" result="shape"/>
<feColorMatrix in="SourceAlpha" type="matrix" values="0 0 0 0 0 0 0 0 0 0 0 0 0 0 0 0 0 0 127 0" result="hardAlpha"/>
<feOffset/>
<feGaussianBlur stdDeviation="3.91596"/>
<feComposite in2="hardAlpha" operator="arithmetic" k2="-1" k3="1"/>
<feColorMatrix type="matrix" values="0 0 0 0 0.870588 0 0 0 0 0.87451 0 0 0 0 1 0 0 0 0.5 0"/>
<feBlend mode="normal" in2="shape" result="effect3_innerShadow_4427_32622"/>
<feGaussianBlur stdDeviation="0.529846" result="effect4_foregroundBlur_4427_32622"/>
</filter>
</defs>
</svg>
